<svg width="29" height="40" viewBox="0 0 29 40" fill="none" xmlns="http://www.w3.org/2000/svg">
<g clip-path="url(#clip0_99_66)">
<path d="M0.416016 7.70303C0.416016 3.57022 3.76758 0.218658 7.90039 0.218658H20.7441C24.877 0.218658 28.2285 3.57022 28.2285 7.70303C28.2285 10.3202 26.8848 12.6249 24.8457 13.9608C26.8848 15.2968 28.2285 17.6015 28.2285 20.2187C28.2285 24.3515 24.877 27.703 20.7441 27.703H20.5801C18.6426 27.703 16.877 26.9687 15.5488 25.7577V32.6562C15.5488 36.8437 12.1113 40.2187 7.93945 40.2187C3.81445 40.2187 0.416016 36.8749 0.416016 32.7343C0.416016 30.1171 1.75977 27.8124 3.79102 26.4765C1.75977 25.1405 0.416016 22.8358 0.416016 20.2187C0.416016 17.6015 1.75977 15.2968 3.79102 13.9608C1.75977 12.6249 0.416016 10.3202 0.416016 7.70303ZM13.0957 15.1874H7.90039C5.11914 15.1874 2.86914 17.4374 2.86914 20.2187C2.86914 22.9843 5.10352 25.2343 7.86914 25.2499C7.87695 25.2499 7.89258 25.2499 7.90039 25.2499H13.0957V15.1874ZM15.5488 20.2187C15.5488 22.9999 17.7988 25.2499 20.5801 25.2499H20.7441C23.5176 25.2499 25.7754 22.9999 25.7754 20.2187C25.7754 17.4374 23.5176 15.1874 20.7441 15.1874H20.5801C17.7988 15.1874 15.5488 17.4374 15.5488 20.2187ZM7.90039 27.703C7.89258 27.703 7.87695 27.703 7.86914 27.703C5.10352 27.7187 2.86914 29.9687 2.86914 32.7343C2.86914 35.5077 5.15039 37.7655 7.93945 37.7655C10.7754 37.7655 13.0957 35.4687 13.0957 32.6562V27.703H7.90039ZM7.90039 2.67178C5.11914 2.67178 2.86914 4.92178 2.86914 7.70303C2.86914 10.4843 5.11914 12.7343 7.90039 12.7343H13.0957V2.67178H7.90039ZM15.5488 12.7343H20.7441C23.5176 12.7343 25.7754 10.4843 25.7754 7.70303C25.7754 4.92178 23.5176 2.67178 20.7441 2.67178H15.5488V12.7343Z" fill="#E0E0E0"/>
</g>
<defs>
<clipPath id="clip0_99_66">
<rect width="28.2353" height="40" fill="white"/>
</clipPath>
</defs>
</svg>
