<svg width="40" height="40" viewBox="0 0 40 40" fill="none" xmlns="http://www.w3.org/2000/svg">
<g clip-path="url(#clip0_112_39)">
<path d="M39.4245 18.4361L21.9592 0.973322C21.72 0.734072 21.4361 0.544282 21.1236 0.414794C20.8111 0.285306 20.4762 0.218658 20.1379 0.218658C19.7996 0.218658 19.4647 0.285306 19.1522 0.414794C18.8397 0.544282 18.5557 0.734072 18.3166 0.973322L14.6915 4.59839L19.2916 9.19847C19.8341 9.01324 20.4178 8.98426 20.976 9.11484C21.5342 9.24542 22.0445 9.5303 22.4485 9.93696C22.8526 10.3436 23.1342 10.8557 23.2612 11.4147C23.3881 11.9737 23.3554 12.5572 23.1667 13.0985L27.5993 17.5336C28.2551 17.3027 28.9699 17.302 29.6262 17.5316C30.2824 17.7612 30.8409 18.2075 31.2097 18.7969C31.5785 19.3863 31.7355 20.0837 31.655 20.7743C31.5745 21.4648 31.2613 22.1074 30.7668 22.5962C30.2663 23.0998 29.6064 23.414 28.8999 23.4852C28.1934 23.5563 27.4842 23.3799 26.8933 22.9862C26.3024 22.5925 25.8665 22.0058 25.6602 21.3264C25.4538 20.647 25.4897 19.917 25.7617 19.2611L21.6292 15.1261V26.0088C22.2573 26.3197 22.7599 26.8365 23.0532 27.4731C23.3465 28.1097 23.4128 28.8276 23.241 29.5071C23.0691 30.1866 22.6696 30.7867 22.109 31.2074C21.5484 31.628 20.8605 31.8438 20.16 31.8188C19.4596 31.7938 18.7889 31.5295 18.2597 31.0699C17.7305 30.6103 17.3748 29.9832 17.2519 29.2932C17.129 28.6031 17.2463 27.8918 17.5842 27.2778C17.9222 26.6638 18.4604 26.1841 19.1091 25.9188V14.9361C18.7348 14.7827 18.3946 14.5568 18.1081 14.2713C17.8215 13.9858 17.5943 13.6464 17.4395 13.2727C17.2847 12.899 17.2054 12.4984 17.2062 12.0939C17.207 11.6894 17.2879 11.2891 17.4441 10.916L12.9115 6.38092L0.936304 18.3561C0.697054 18.5953 0.507264 18.8792 0.377776 19.1917C0.248288 19.5042 0.181641 19.8391 0.181641 20.1774C0.181641 20.5157 0.248288 20.8506 0.377776 21.1631C0.507264 21.4756 0.697054 21.7596 0.936304 21.9987L18.4016 39.464C18.6407 39.7032 18.9247 39.893 19.2372 40.0225C19.5497 40.152 19.8846 40.2187 20.2229 40.2187C20.5612 40.2187 20.8961 40.152 21.2086 40.0225C21.5211 39.893 21.805 39.7032 22.0442 39.464L39.427 22.0812C39.6662 21.8421 39.856 21.5581 39.9855 21.2456C40.115 20.9331 40.1816 20.5982 40.1816 20.2599C40.1816 19.9216 40.115 19.5867 39.9855 19.2742C39.856 18.9617 39.6662 18.6778 39.427 18.4386" fill="#E0E0E0"/>
</g>
<defs>
<clipPath id="clip0_112_39">
<rect width="40" height="40" fill="white"/>
</clipPath>
</defs>
</svg>
