<svg width="41" height="40" viewBox="0 0 41 40" fill="none" xmlns="http://www.w3.org/2000/svg">
<g clip-path="url(#clip0_99_73)">
<path d="M13.9025 32.4266C13.9025 32.592 13.7123 32.7244 13.4724 32.7244C13.1995 32.7492 13.0093 32.6168 13.0093 32.4266C13.0093 32.2612 13.1995 32.1288 13.4394 32.1288C13.6875 32.104 13.9025 32.2364 13.9025 32.4266ZM11.3302 32.0544C11.2723 32.2198 11.4377 32.4101 11.6859 32.4597C11.9009 32.5424 12.149 32.4597 12.1987 32.2943C12.2483 32.1288 12.0912 31.9386 11.843 31.8642C11.628 31.8063 11.3881 31.889 11.3302 32.0544ZM14.9861 31.9138C14.7462 31.9717 14.5808 32.1288 14.6056 32.3191C14.6304 32.4845 14.8455 32.592 15.0936 32.5341C15.3334 32.4762 15.4989 32.3191 15.4741 32.1537C15.4492 31.9965 15.2259 31.889 14.9861 31.9138ZM20.4285 0.218658C8.95638 0.218658 0.180664 8.9282 0.180664 20.4003C0.180664 29.573 5.95394 37.4224 14.2003 40.185C15.259 40.3752 15.6312 39.7218 15.6312 39.1841C15.6312 38.6713 15.6064 35.8426 15.6064 34.1056C15.6064 34.1056 9.81658 35.3463 8.60072 31.6408C8.60072 31.6408 7.6578 29.2339 6.30133 28.6136C6.30133 28.6136 4.40723 27.315 6.43367 27.3398C6.43367 27.3398 8.49319 27.5053 9.62634 29.4738C11.4377 32.6665 14.4732 31.7484 15.656 31.2025C15.8463 29.8791 16.3839 28.961 16.9794 28.4151C12.3558 27.9023 7.69089 27.2323 7.69089 19.2754C7.69089 17.0009 8.3195 15.8594 9.64288 14.4037C9.42783 13.8661 8.72478 11.6494 9.85793 8.78759C11.5866 8.24997 15.565 11.0208 15.565 11.0208C17.2193 10.5576 18.9976 10.3178 20.7593 10.3178C22.5211 10.3178 24.2994 10.5576 25.9536 11.0208C25.9536 11.0208 29.9321 8.24169 31.6607 8.78759C32.7939 11.6577 32.0908 13.8661 31.8758 14.4037C33.1992 15.8677 34.0098 17.0091 34.0098 19.2754C34.0098 27.2571 29.138 27.894 24.5145 28.4151C25.2754 29.0685 25.9205 30.3092 25.9205 32.2529C25.9205 35.0403 25.8957 38.4894 25.8957 39.1676C25.8957 39.7052 26.2762 40.3587 27.3266 40.1684C35.5978 37.4224 41.2057 29.573 41.2057 20.4003C41.2057 8.9282 31.9006 0.218658 20.4285 0.218658ZM8.22024 28.7459C8.11272 28.8286 8.13753 29.0189 8.27814 29.176C8.41048 29.3084 8.60072 29.3663 8.70824 29.2587C8.81577 29.176 8.79095 28.9858 8.65034 28.8286C8.518 28.6963 8.32777 28.6384 8.22024 28.7459ZM7.32696 28.076C7.26906 28.1835 7.35177 28.3158 7.51719 28.3985C7.64953 28.4813 7.81496 28.4564 7.87285 28.3406C7.93075 28.2331 7.84804 28.1008 7.68262 28.0181C7.51719 27.9684 7.38485 27.9933 7.32696 28.076ZM10.0068 31.0205C9.87448 31.128 9.9241 31.3762 10.1143 31.5333C10.3046 31.7235 10.5444 31.7484 10.652 31.616C10.7595 31.5085 10.7099 31.2604 10.5444 31.1032C10.3625 30.913 10.1143 30.8882 10.0068 31.0205ZM9.0639 29.8046C8.93156 29.8874 8.93156 30.1024 9.0639 30.2926C9.19624 30.4829 9.41956 30.5656 9.52709 30.4829C9.65943 30.3753 9.65943 30.1603 9.52709 29.9701C9.41129 29.7798 9.19624 29.6971 9.0639 29.8046Z" fill="#E0E0E0"/>
</g>
<defs>
<clipPath id="clip0_99_73">
<rect width="40.7843" height="40" fill="white"/>
</clipPath>
</defs>
</svg>
