<svg width="40" height="40" viewBox="0 0 40 40" fill="none" xmlns="http://www.w3.org/2000/svg">
<g clip-path="url(#clip0_99_59)">
<path d="M0.636475 0.218658V40.2187H40.6365V0.218658H0.636475ZM22.4043 31.4151C22.4043 35.3079 20.1186 37.0847 16.7883 37.0847C13.7793 37.0847 12.0383 35.5312 11.1454 33.6472L14.2079 31.799C14.7972 32.8437 15.3329 33.7276 16.6275 33.7276C17.8597 33.7276 18.6454 33.2454 18.6454 31.3615V18.5847H22.4043V31.4151ZM31.2972 37.0847C27.8061 37.0847 25.5472 35.424 24.449 33.2454L27.5115 31.4776C28.315 32.7901 29.3686 33.7633 31.2168 33.7633C32.7704 33.7633 33.7704 32.9865 33.7704 31.9062C33.7704 30.6204 32.7525 30.1651 31.0293 29.4062L30.0918 29.0044C27.3775 27.8526 25.5829 26.3972 25.5829 23.3347C25.5829 20.5133 27.7347 18.3704 31.0829 18.3704C33.4758 18.3704 35.19 19.2008 36.4222 21.3794L33.4936 23.2544C32.8508 22.1026 32.1543 21.6472 31.074 21.6472C29.9758 21.6472 29.2793 22.3437 29.2793 23.2544C29.2793 24.3794 29.9758 24.8347 31.5918 25.5401L32.5293 25.9419C35.7258 27.3079 37.5204 28.7097 37.5204 31.8526C37.5204 35.2276 34.8597 37.0847 31.2972 37.0847Z" fill="#E0E0E0"/>
</g>
<defs>
<clipPath id="clip0_99_59">
<rect width="40" height="40" fill="white"/>
</clipPath>
</defs>
</svg>
