<svg width="41" height="40" viewBox="0 0 41 40" fill="none" xmlns="http://www.w3.org/2000/svg">
<g clip-path="url(#clip0_99_38)">
<path d="M39.9031 15.2634C39.2156 12.5046 37.9121 10.4243 35.1354 10.4243H31.5551V14.6563C31.5551 17.9419 28.7695 20.7096 25.591 20.7096H16.0557C13.4486 20.7096 11.288 22.9417 11.288 25.5577V34.6467C11.288 37.2359 13.5379 38.7537 16.0557 39.4947C19.0734 40.3786 21.9751 40.5393 25.591 39.4947C27.9928 38.7983 30.3587 37.3966 30.3587 34.6467V31.0129H20.8323V29.7986H35.1354C37.9121 29.7986 38.9388 27.8612 39.9031 24.9595C40.903 21.9685 40.8584 19.0936 39.9031 15.2634ZM26.1892 33.4324C27.1803 33.4324 27.9838 34.2449 27.9838 35.2448C27.9838 36.2537 27.1803 37.0662 26.1892 37.0662C25.2071 37.0662 24.3947 36.2448 24.3947 35.2448C24.4036 34.236 25.2071 33.4324 26.1892 33.4324ZM15.6182 19.5132H25.1536C27.8053 19.5132 29.9213 17.3258 29.9213 14.6652V5.56729C29.9213 2.9781 27.7428 1.04066 25.1536 0.603178C21.9572 0.0764098 18.4841 0.103195 15.6182 0.612106C11.5826 1.32637 10.8505 2.81739 10.8505 5.57622V9.21003H20.3948V10.4243H7.27024C4.49355 10.4243 2.06506 12.0939 1.30616 15.2634C0.431191 18.8972 0.395478 21.165 1.30616 24.9595C1.98471 27.7808 3.60073 29.7986 6.37742 29.7986H9.65409V25.4416C9.65409 22.2899 12.3772 19.5132 15.6182 19.5132ZM15.02 6.78154C14.0289 6.78154 13.2254 5.96907 13.2254 4.9691C13.2343 3.96021 14.0289 3.14773 15.02 3.14773C16.0021 3.14773 16.8146 3.96913 16.8146 4.9691C16.8146 5.96907 16.011 6.78154 15.02 6.78154Z" fill="#E0E0E0"/>
</g>
<defs>
<clipPath id="clip0_99_38">
<rect width="40.8" height="40" fill="white"/>
</clipPath>
</defs>
</svg>
