<svg width="21" height="24" viewBox="0 0 21 24" fill="none" xmlns="http://www.w3.org/2000/svg">
<path d="M1 4.49063C1 2.01094 3.01094 0 5.49063 0H13.1969C15.6766 0 17.6875 2.01094 17.6875 4.49063C17.6875 6.06094 16.8813 7.44375 15.6578 8.24531C16.8813 9.04687 17.6875 10.4297 17.6875 12C17.6875 14.4797 15.6766 16.4906 13.1969 16.4906H13.0984C11.9359 16.4906 10.8766 16.05 10.0797 15.3234V19.4625C10.0797 21.975 8.01719 24 5.51406 24C3.03906 24 1 21.9938 1 19.5094C1 17.9391 1.80625 16.5563 3.025 15.7547C1.80625 14.9531 1 13.5703 1 12C1 10.4297 1.80625 9.04687 3.025 8.24531C1.80625 7.44375 1 6.06094 1 4.49063ZM8.60781 8.98125H5.49063C3.82188 8.98125 2.47188 10.3313 2.47188 12C2.47188 13.6594 3.8125 15.0094 5.47188 15.0187C5.47656 15.0187 5.48594 15.0187 5.49063 15.0187H8.60781V8.98125ZM10.0797 12C10.0797 13.6687 11.4297 15.0187 13.0984 15.0187H13.1969C14.8609 15.0187 16.2156 13.6687 16.2156 12C16.2156 10.3313 14.8609 8.98125 13.1969 8.98125H13.0984C11.4297 8.98125 10.0797 10.3313 10.0797 12ZM5.49063 16.4906C5.48594 16.4906 5.47656 16.4906 5.47188 16.4906C3.8125 16.5 2.47188 17.85 2.47188 19.5094C2.47188 21.1734 3.84063 22.5281 5.51406 22.5281C7.21563 22.5281 8.60781 21.15 8.60781 19.4625V16.4906H5.49063ZM5.49063 1.47187C3.82188 1.47187 2.47188 2.82188 2.47188 4.49063C2.47188 6.15938 3.82188 7.50937 5.49063 7.50937H8.60781V1.47187H5.49063ZM10.0797 7.50937H13.1969C14.8609 7.50937 16.2156 6.15938 16.2156 4.49063C16.2156 2.82188 14.8609 1.47187 13.1969 1.47187H10.0797V7.50937Z" fill="#7A7A7A"/>
</svg>
