<svg width="25" height="24" viewBox="0 0 25 24" fill="none" xmlns="http://www.w3.org/2000/svg">
<g clip-path="url(#clip0_114_170)">
<path d="M23.9754 10.9305L13.4962 0.452798C13.3527 0.309248 13.1824 0.195374 12.9949 0.117681C12.8074 0.0399886 12.6064 0 12.4034 0C12.2005 0 11.9995 0.0399886 11.812 0.117681C11.6245 0.195374 11.4541 0.309248 11.3107 0.452798L9.13563 2.62784L11.8957 5.38788C12.2212 5.27675 12.5714 5.25936 12.9063 5.33771C13.2412 5.41606 13.5474 5.58698 13.7898 5.83098C14.0322 6.07498 14.2012 6.38222 14.2774 6.71764C14.3536 7.05305 14.3339 7.40314 14.2207 7.72793L16.8803 10.389C17.2737 10.2504 17.7027 10.25 18.0964 10.3878C18.4902 10.5256 18.8253 10.7933 19.0465 11.1469C19.2678 11.5006 19.362 11.919 19.3137 12.3334C19.2654 12.7477 19.0775 13.1333 18.7808 13.4265C18.4805 13.7287 18.0845 13.9172 17.6607 13.9599C17.2368 14.0026 16.8112 13.8968 16.4567 13.6605C16.1021 13.4243 15.8406 13.0723 15.7168 12.6646C15.593 12.257 15.6145 11.819 15.7777 11.4255L13.2982 8.94445V15.4741C13.6751 15.6606 13.9767 15.9707 14.1526 16.3527C14.3286 16.7346 14.3684 17.1653 14.2653 17.5731C14.1622 17.9808 13.9225 18.3408 13.5861 18.5932C13.2497 18.8456 12.837 18.9751 12.4167 18.9601C11.9965 18.9451 11.594 18.7865 11.2765 18.5107C10.959 18.235 10.7456 17.8587 10.6718 17.4447C10.5981 17.0307 10.6685 16.6039 10.8712 16.2355C11.074 15.8671 11.3969 15.5793 11.7862 15.4201V8.83045C11.5616 8.73843 11.3575 8.60287 11.1855 8.43158C11.0136 8.2603 10.8773 8.05667 10.7844 7.83245C10.6915 7.60823 10.644 7.36784 10.6444 7.12515C10.6449 6.88246 10.6934 6.64226 10.7872 6.4184L8.06761 3.69735L0.882486 10.8825C0.738936 11.026 0.625061 11.1963 0.547369 11.3838C0.469676 11.5713 0.429688 11.7723 0.429688 11.9753C0.429688 12.1782 0.469676 12.3792 0.547369 12.5667C0.625061 12.7542 0.738936 12.9245 0.882486 13.068L11.3617 23.5472C11.5051 23.6908 11.6755 23.8046 11.863 23.8823C12.0505 23.96 12.2515 24 12.4544 24C12.6574 24 12.8584 23.96 13.0459 23.8823C13.2334 23.8046 13.4037 23.6908 13.5472 23.5472L23.9769 13.1175C24.1204 12.974 24.2343 12.8037 24.312 12.6162C24.3897 12.4287 24.4297 12.2277 24.4297 12.0248C24.4297 11.8218 24.3897 11.6208 24.312 11.4333C24.2343 11.2458 24.1204 11.0755 23.9769 10.932" fill="#7A7A7A"/>
</g>
<defs>
<clipPath id="clip0_114_170">
<rect width="24" height="24" fill="white" transform="translate(0.144043)"/>
</clipPath>
</defs>
</svg>
