<svg width="25" height="24" viewBox="0 0 25 24" fill="none" xmlns="http://www.w3.org/2000/svg">
<g clip-path="url(#clip0_114_168)">
<path d="M8.66281 19.3248C8.66281 19.424 8.54867 19.5034 8.40475 19.5034C8.24098 19.5183 8.12684 19.4389 8.12684 19.3248C8.12684 19.2255 8.24098 19.1461 8.3849 19.1461C8.53378 19.1312 8.66281 19.2106 8.66281 19.3248ZM7.11941 19.1014C7.08467 19.2007 7.18393 19.3148 7.33281 19.3446C7.46184 19.3942 7.61072 19.3446 7.64049 19.2454C7.67027 19.1461 7.57598 19.032 7.4271 18.9873C7.29807 18.9526 7.15415 19.0022 7.11941 19.1014ZM9.31292 19.0171C9.16901 19.0518 9.06975 19.1461 9.08464 19.2603C9.09953 19.3595 9.22856 19.424 9.37744 19.3893C9.52136 19.3545 9.62061 19.2603 9.60572 19.161C9.59084 19.0667 9.45684 19.0022 9.31292 19.0171ZM12.5784 0C5.69512 0 0.429688 5.22573 0.429688 12.109C0.429688 17.6126 3.89365 22.3222 8.84147 23.9798C9.47669 24.0939 9.70002 23.7019 9.70002 23.3793C9.70002 23.0716 9.68513 21.3744 9.68513 20.3322C9.68513 20.3322 6.21124 21.0766 5.48172 18.8533C5.48172 18.8533 4.91597 17.4092 4.10209 17.037C4.10209 17.037 2.96563 16.2578 4.18149 16.2727C4.18149 16.2727 5.4172 16.372 6.09709 17.5531C7.18393 19.4687 9.00524 18.9178 9.7149 18.5903C9.82905 17.7963 10.1516 17.2454 10.5089 16.9179C7.73479 16.6102 4.93582 16.2082 4.93582 11.4341C4.93582 10.0693 5.31299 9.38447 6.10702 8.51104C5.97799 8.18846 5.55616 6.85846 6.23605 5.14136C7.27325 4.81878 9.66031 6.48129 9.66031 6.48129C10.6529 6.20338 11.7198 6.05946 12.7769 6.05946C13.8339 6.05946 14.9009 6.20338 15.8935 6.48129C15.8935 6.48129 18.2805 4.81382 19.3177 5.14136C19.9976 6.86342 19.5758 8.18846 19.4468 8.51104C20.2408 9.38943 20.7271 10.0743 20.7271 11.4341C20.7271 16.2231 17.8041 16.6052 15.03 16.9179C15.4865 17.3099 15.8736 18.0543 15.8736 19.2205C15.8736 20.893 15.8587 22.9624 15.8587 23.3694C15.8587 23.6919 16.087 24.084 16.7173 23.9699C21.68 22.3222 25.0447 17.6126 25.0447 12.109C25.0447 5.22573 19.4617 0 12.5784 0ZM5.25343 17.1164C5.18892 17.166 5.20381 17.2801 5.28817 17.3744C5.36758 17.4538 5.48172 17.4886 5.54623 17.424C5.61075 17.3744 5.59586 17.2603 5.51149 17.166C5.43209 17.0866 5.31795 17.0518 5.25343 17.1164ZM4.71746 16.7144C4.68272 16.7789 4.73235 16.8583 4.8316 16.9079C4.91101 16.9576 5.01026 16.9427 5.045 16.8732C5.07974 16.8087 5.03011 16.7293 4.93086 16.6796C4.8316 16.6499 4.7522 16.6648 4.71746 16.7144ZM6.32538 18.4811C6.24597 18.5456 6.27575 18.6945 6.38989 18.7888C6.50404 18.9029 6.64795 18.9178 6.71247 18.8384C6.77698 18.7739 6.74721 18.625 6.64795 18.5307C6.53877 18.4166 6.38989 18.4017 6.32538 18.4811ZM5.75963 17.7516C5.68023 17.8012 5.68023 17.9302 5.75963 18.0444C5.83903 18.1585 5.97303 18.2082 6.03754 18.1585C6.11694 18.094 6.11694 17.965 6.03754 17.8508C5.96806 17.7367 5.83903 17.6871 5.75963 17.7516Z" fill="#7A7A7A"/>
</g>
<defs>
<clipPath id="clip0_114_168">
<rect width="24.3843" height="24" fill="white" transform="translate(0.144043)"/>
</clipPath>
</defs>
</svg>
