<svg width="25" height="24" viewBox="0 0 25 24" fill="none" xmlns="http://www.w3.org/2000/svg">
<g clip-path="url(#clip0_114_160)">
<path d="M1 0V24H25V0H1ZM14.0607 18.7179C14.0607 21.0536 12.6893 22.1196 10.6911 22.1196C8.88571 22.1196 7.84107 21.1875 7.30536 20.0571L9.14286 18.9482C9.49643 19.575 9.81786 20.1054 10.5946 20.1054C11.3339 20.1054 11.8054 19.8161 11.8054 18.6857V11.0196H14.0607V18.7179ZM19.3964 22.1196C17.3018 22.1196 15.9464 21.1232 15.2875 19.8161L17.125 18.7554C17.6071 19.5429 18.2393 20.1268 19.3482 20.1268C20.2804 20.1268 20.8804 19.6607 20.8804 19.0125C20.8804 18.2411 20.2696 17.9679 19.2357 17.5125L18.6732 17.2714C17.0446 16.5804 15.9679 15.7071 15.9679 13.8696C15.9679 12.1768 17.2589 10.8911 19.2679 10.8911C20.7036 10.8911 21.7321 11.3893 22.4714 12.6964L20.7143 13.8214C20.3286 13.1304 19.9107 12.8571 19.2625 12.8571C18.6036 12.8571 18.1857 13.275 18.1857 13.8214C18.1857 14.4964 18.6036 14.7696 19.5732 15.1929L20.1357 15.4339C22.0536 16.2536 23.1304 17.0946 23.1304 18.9804C23.1304 21.0054 21.5339 22.1196 19.3964 22.1196Z" fill="#7A7A7A"/>
</g>
<defs>
<clipPath id="clip0_114_160">
<rect width="24" height="24" fill="white" transform="translate(0.714355)"/>
</clipPath>
</defs>
</svg>
