<svg width="25" height="24" viewBox="0 0 25 24" fill="none" xmlns="http://www.w3.org/2000/svg">
<g clip-path="url(#clip0_114_158)">
<path d="M24.5599 9.02655C24.1475 7.37125 23.3653 6.12307 21.6993 6.12307H19.5512V8.66227C19.5512 10.6336 17.8798 12.2943 15.9727 12.2943H10.2515C8.68728 12.2943 7.39089 13.6335 7.39089 15.2031V20.6565C7.39089 22.21 8.74085 23.1207 10.2515 23.5653C12.0622 24.0957 13.8032 24.1921 15.9727 23.5653C17.4138 23.1475 18.8334 22.3065 18.8334 20.6565V18.4762H13.1175V17.7477H21.6993C23.3653 17.7477 23.9814 16.5852 24.5599 14.8442C25.1599 13.0496 25.1331 11.3247 24.5599 9.02655ZM16.3317 19.928C16.9263 19.928 17.4084 20.4154 17.4084 21.0154C17.4084 21.6208 16.9263 22.1082 16.3317 22.1082C15.7424 22.1082 15.2549 21.6154 15.2549 21.0154C15.2603 20.4101 15.7424 19.928 16.3317 19.928ZM9.98902 11.5765H15.7103C17.3013 11.5765 18.5709 10.264 18.5709 8.66763V3.20889C18.5709 1.65537 17.2638 0.49291 15.7103 0.230418C13.7925 -0.0856422 11.7086 -0.0695712 9.98902 0.235776C7.56767 0.664332 7.1284 1.55894 7.1284 3.21425V5.39453H12.855V6.12307H4.98026C3.31425 6.12307 1.85715 7.12483 1.40181 9.02655C0.87683 11.2068 0.855402 12.5675 1.40181 14.8442C1.80894 16.537 2.77855 17.7477 4.44457 17.7477H6.41057V15.1335C6.41057 13.2425 8.04444 11.5765 9.98902 11.5765ZM9.6301 3.93743C9.03548 3.93743 8.55335 3.44995 8.55335 2.84997C8.55871 2.24464 9.03548 1.75715 9.6301 1.75715C10.2194 1.75715 10.7069 2.24999 10.7069 2.84997C10.7069 3.44995 10.2247 3.93743 9.6301 3.93743Z" fill="#7A7A7A"/>
</g>
<defs>
<clipPath id="clip0_114_158">
<rect width="24" height="24" fill="white" transform="translate(0.714355)"/>
</clipPath>
</defs>
</svg>
