<svg width="17" height="15" viewBox="0 0 17 15" fill="none" xmlns="http://www.w3.org/2000/svg">
<path d="M4.80346 7.62736L0.332308 3.07103C0.12077 2.85684 0.0101923 2.5891 0.000576923 2.26783C-0.00903846 1.94655 0.101538 1.66907 0.332308 1.43542C0.543846 1.22123 0.813077 1.11414 1.14 1.11414C1.46692 1.11414 1.73616 1.22123 1.94769 1.43542L7.25538 6.80956C7.37077 6.92639 7.4525 7.05295 7.50058 7.18926C7.54866 7.32556 7.57269 7.47159 7.57269 7.62736C7.57269 7.78314 7.54866 7.92917 7.50058 8.06547C7.4525 8.20178 7.37077 8.32833 7.25538 8.44517L1.94769 13.8193C1.73616 14.0335 1.47173 14.1455 1.15442 14.1552C0.837115 14.165 0.563077 14.0529 0.332308 13.8193C0.12077 13.6051 0.015 13.3325 0.015 13.0015C0.015 12.6705 0.12077 12.3979 0.332308 12.1837L4.80346 7.62736ZM12.4188 7.62736L7.94769 3.07103C7.73616 2.85684 7.62557 2.5891 7.61596 2.26783C7.60635 1.94655 7.71692 1.66907 7.94769 1.43542C8.15923 1.22123 8.42847 1.11414 8.75538 1.11414C9.0823 1.11414 9.35154 1.22123 9.56308 1.43542L14.8708 6.80956C14.9862 6.92639 15.0678 7.05295 15.116 7.18926C15.1641 7.32556 15.1881 7.47159 15.1881 7.62736C15.1881 7.78314 15.1641 7.92917 15.116 8.06547C15.0678 8.20178 14.9862 8.32833 14.8708 8.44517L9.56308 13.8193C9.35154 14.0335 9.08712 14.1455 8.76981 14.1552C8.4525 14.165 8.17846 14.0529 7.94769 13.8193C7.73616 13.6051 7.63038 13.3325 7.63038 13.0015C7.63038 12.6705 7.73616 12.3979 7.94769 12.1837L12.4188 7.62736Z" fill="url(#paint0_linear_114_148)"/>
<defs>
<linearGradient id="paint0_linear_114_148" x1="7.59404" y1="1.11414" x2="7.59404" y2="14.1558" gradientUnits="userSpaceOnUse">
<stop stop-color="#FFB801"/>
<stop offset="1" stop-color="#DF9102"/>
</linearGradient>
</defs>
</svg>
