<svg width="25" height="24" viewBox="0 0 25 24" fill="none" xmlns="http://www.w3.org/2000/svg">
<g clip-path="url(#clip0_123_6)">
<path d="M8.22645 19.3091C8.22645 19.4083 8.1124 19.4876 7.96859 19.4876C7.80496 19.5025 7.69091 19.4231 7.69091 19.3091C7.69091 19.2099 7.80496 19.1306 7.94876 19.1306C8.09752 19.1157 8.22645 19.195 8.22645 19.3091ZM6.6843 19.0859C6.64959 19.1851 6.74876 19.2992 6.89752 19.3289C7.02645 19.3785 7.17521 19.3289 7.20496 19.2297C7.23471 19.1306 7.1405 19.0165 6.99174 18.9719C6.86281 18.9372 6.71901 18.9868 6.6843 19.0859ZM8.87603 19.0017C8.73223 19.0364 8.63306 19.1306 8.64793 19.2446C8.66281 19.3438 8.79174 19.4083 8.9405 19.3736C9.0843 19.3388 9.18347 19.2446 9.16859 19.1455C9.15372 19.0512 9.01983 18.9868 8.87603 19.0017ZM12.1388 0C5.26116 0 0 5.22149 0 12.0992C0 17.5983 3.46116 22.3041 8.40496 23.9603C9.03967 24.0744 9.26281 23.6826 9.26281 23.3603C9.26281 23.0529 9.24793 21.357 9.24793 20.3157C9.24793 20.3157 5.77686 21.0595 5.04793 18.838C5.04793 18.838 4.48264 17.395 3.66942 17.0231C3.66942 17.0231 2.53388 16.2446 3.74876 16.2595C3.74876 16.2595 4.98347 16.3587 5.66281 17.5388C6.74876 19.4529 8.5686 18.9025 9.27769 18.5752C9.39174 17.7818 9.71405 17.2314 10.0711 16.9041C7.29917 16.5967 4.50248 16.195 4.50248 11.4248C4.50248 10.0612 4.87934 9.37686 5.67273 8.50413C5.5438 8.18182 5.12231 6.85289 5.80165 5.13719C6.83802 4.81488 9.22314 6.47603 9.22314 6.47603C10.2149 6.19835 11.281 6.05455 12.3372 6.05455C13.3934 6.05455 14.4595 6.19835 15.4512 6.47603C15.4512 6.47603 17.8364 4.80992 18.8727 5.13719C19.5521 6.85785 19.1306 8.18182 19.0017 8.50413C19.795 9.38182 20.281 10.0661 20.281 11.4248C20.281 16.2099 17.3603 16.5917 14.5884 16.9041C15.0446 17.2959 15.4314 18.0397 15.4314 19.205C15.4314 20.876 15.4165 22.9438 15.4165 23.3504C15.4165 23.6727 15.6446 24.0645 16.2744 23.9504C21.2331 22.3041 24.595 17.5983 24.595 12.0992C24.595 5.22149 19.0165 0 12.1388 0ZM4.81983 17.1025C4.75537 17.1521 4.77025 17.2661 4.85455 17.3603C4.93388 17.4397 5.04793 17.4744 5.1124 17.4099C5.17686 17.3603 5.16198 17.2463 5.07769 17.1521C4.99835 17.0727 4.8843 17.038 4.81983 17.1025ZM4.2843 16.7008C4.24959 16.7653 4.29917 16.8446 4.39835 16.8942C4.47769 16.9438 4.57686 16.9289 4.61157 16.8595C4.64628 16.795 4.59669 16.7157 4.49752 16.6661C4.39835 16.6364 4.31901 16.6512 4.2843 16.7008ZM5.89091 18.4661C5.81157 18.5306 5.84132 18.6793 5.95537 18.7736C6.06942 18.8876 6.21322 18.9025 6.27769 18.8231C6.34215 18.7587 6.3124 18.6099 6.21322 18.5157C6.10413 18.4017 5.95537 18.3868 5.89091 18.4661ZM5.32562 17.7372C5.24628 17.7868 5.24628 17.9157 5.32562 18.0298C5.40496 18.1438 5.53884 18.1934 5.60331 18.1438C5.68264 18.0793 5.68264 17.9504 5.60331 17.8364C5.53388 17.7223 5.40496 17.6727 5.32562 17.7372Z" fill="#F9F9F9"/>
</g>
<defs>
<clipPath id="clip0_123_6">
<rect width="24.595" height="24" fill="white"/>
</clipPath>
</defs>
</svg>
