<svg width="25" height="24" viewBox="0 0 25 24" fill="none" xmlns="http://www.w3.org/2000/svg">
<g clip-path="url(#clip0_123_4)">
<path d="M22.8808 0H2.30402C1.36116 0 0.595093 0.776786 0.595093 1.73036V22.2696C0.595093 23.2232 1.36116 24 2.30402 24H22.8808C23.8237 24 24.5951 23.2232 24.5951 22.2696V1.73036C24.5951 0.776786 23.8237 0 22.8808 0ZM7.84866 20.5714H4.29152V9.11786H7.85402V20.5714H7.84866ZM6.07009 7.55357C4.92902 7.55357 4.00759 6.62679 4.00759 5.49107C4.00759 4.35536 4.92902 3.42857 6.07009 3.42857C7.20581 3.42857 8.13259 4.35536 8.13259 5.49107C8.13259 6.63214 7.21116 7.55357 6.07009 7.55357ZM21.1826 20.5714H17.6254V15C17.6254 13.6714 17.5987 11.9625 15.7772 11.9625C13.9237 11.9625 13.6397 13.4089 13.6397 14.9036V20.5714H10.0826V9.11786H13.4951V10.6821H13.5433C14.0201 9.78214 15.1826 8.83393 16.913 8.83393C20.513 8.83393 21.1826 11.2071 21.1826 14.2929V20.5714Z" fill="#F9F9F9"/>
</g>
<defs>
<clipPath id="clip0_123_4">
<rect width="24" height="24" fill="white" transform="translate(0.595093)"/>
</clipPath>
</defs>
</svg>
